<?xml version="1.0" encoding="UTF-8"?>
<svg version="1.1" xmlns="http://www.w3.org/2000/svg" width="512" height="512">
<path d="M0 0 C1.12857422 -0.01546875 2.25714844 -0.0309375 3.41992188 -0.046875 C11.13903891 -0.01095124 18.09363804 0.79910205 23.93920898 6.25 C26.88423836 9.43411436 28.55778323 12.41976803 30.0625 16.5 C30.70799805 16.51458252 31.35349609 16.52916504 32.01855469 16.54418945 C34.95046573 16.6187787 37.88125165 16.7154024 40.8125 16.8125 C42.33617187 16.84633789 42.33617187 16.84633789 43.890625 16.88085938 C44.8703125 16.91630859 45.85 16.95175781 46.859375 16.98828125 C47.76010742 17.01446533 48.66083984 17.04064941 49.58886719 17.06762695 C52.5243732 17.58073208 53.91650199 18.45502916 56.0625 20.5 C56.3925 21.49 56.7225 22.48 57.0625 23.5 C63.6625 23.83 70.2625 24.16 77.0625 24.5 C78.0525 22.025 78.0525 22.025 79.0625 19.5 C81.0625 17.5 81.0625 17.5 83.08897591 17.25390434 C83.92780752 17.25574793 84.76663914 17.25759151 85.63088989 17.25949097 C86.59285278 17.25674164 87.55481567 17.25399231 88.54592896 17.25115967 C89.6047226 17.25835022 90.66351624 17.26554077 91.75439453 17.27294922 C92.86659363 17.27265717 93.97879272 17.27236511 95.12469482 17.27206421 C98.81497904 17.27346182 102.50506339 17.28904338 106.1953125 17.3046875 C108.7483611 17.3084161 111.30141113 17.31126379 113.85446167 17.31326294 C119.89639939 17.32012897 125.93825082 17.33590505 131.98015392 17.35596192 C138.8579311 17.37829908 145.73571168 17.38930884 152.61351609 17.39935279 C166.7632174 17.42027072 180.91285475 17.45546031 195.0625 17.5 C195.35890381 16.5514917 195.65530762 15.6029834 195.96069336 14.62573242 C197.11208461 11.35933264 198.04758012 10.0462639 200.625 7.8125 C201.24503906 7.25175781 201.86507813 6.69101562 202.50390625 6.11328125 C209.10766923 1.94938185 215.88679308 1.0123061 223.5625 1.125 C224.74779297 1.10759766 224.74779297 1.10759766 225.95703125 1.08984375 C233.58215221 1.12728297 240.81779604 2.61312888 246.5 8 C247.13808594 8.5878125 247.77617187 9.175625 248.43359375 9.78125 C250.9120621 12.39642044 252.0625 13.8313795 252.0625 17.5 C253.95264832 17.48667633 253.95264832 17.48667633 255.88098145 17.4730835 C267.76908438 17.39191866 279.65713093 17.33199649 291.5454483 17.29275131 C297.65704415 17.27189652 303.76841592 17.24361678 309.87988281 17.19824219 C315.78025 17.15471016 321.68040194 17.13084704 327.58091736 17.12049103 C329.82953783 17.11311294 332.07814683 17.09870525 334.32667542 17.07707977 C337.48171238 17.04794874 340.63586532 17.04404815 343.79101562 17.04589844 C344.71602875 17.03151733 345.64104187 17.01713623 346.59408569 17.00231934 C354.01736704 17.04927763 359.08143321 19.06094535 364.8125 23.75 C370.18818993 30.32028769 371.71545564 36.08743989 371.5625 44.5 C371.57796875 45.35078125 371.5934375 46.2015625 371.609375 47.078125 C371.56591415 54.16224354 369.77052888 59.35342393 365.1328125 64.7421875 C364.16988281 65.55042969 364.16988281 65.55042969 363.1875 66.375 C362.55070312 66.92929688 361.91390625 67.48359375 361.2578125 68.0546875 C355.55606924 71.80850424 349.87099631 71.77936075 343.29345703 71.72705078 C342.32697739 71.72734283 341.36049774 71.72763489 340.36473083 71.72793579 C337.18316544 71.72654699 334.00183678 71.71100684 330.8203125 71.6953125 C328.60928475 71.69158078 326.39825534 71.68873456 324.18722534 71.68673706 C318.37739469 71.67911319 312.56766456 71.65947532 306.75787354 71.6373291 C300.82557536 71.61684388 294.89326088 71.60772961 288.9609375 71.59765625 C277.32808091 71.57622832 265.69529883 71.54210735 254.0625 71.5 C254.0625 76.78 254.0625 82.06 254.0625 87.5 C255.79741699 87.47381592 257.53233398 87.44763184 259.31982422 87.4206543 C265.08719366 87.33964411 270.85454362 87.28240339 276.62231255 87.24093914 C280.11539708 87.21497503 283.6078594 87.17982474 287.10058594 87.12280273 C291.12700976 87.05748785 295.15279216 87.03371107 299.1796875 87.01171875 C301.03809769 86.97300911 301.03809769 86.97300911 302.93405151 86.93351746 C310.73544444 86.93102164 316.54130187 88.06238789 323.0625 92.5 C325.31640625 94.8515625 325.31640625 94.8515625 326.625 97.125 C327.08003906 97.88039063 327.53507812 98.63578125 328.00390625 99.4140625 C329.75646913 102.86745208 330.18937858 105.56998514 330.19951439 109.38586521 C330.2071262 110.90607662 330.2071262 110.90607662 330.21489179 112.45699936 C330.21538955 113.57370559 330.21588731 114.69041183 330.21640015 115.84095764 C330.2207824 117.02477899 330.22516465 118.20860035 330.2296797 119.42829508 C330.24074936 122.72008078 330.24729372 126.01181894 330.25186086 129.3036164 C330.25781696 132.85185512 330.2694269 136.40007632 330.28015137 139.94830322 C330.30467693 148.52113957 330.31930365 157.09398173 330.33221143 165.66684237 C330.33592354 168.08855049 330.33989677 170.51025804 330.3439641 172.93196559 C330.36920305 187.97241727 330.39125488 203.01286986 330.40369225 218.05333805 C330.40662192 221.53743048 330.40958358 225.02152288 330.41259766 228.50561523 C330.41334371 229.37156452 330.41408976 230.23751381 330.41485842 231.12970399 C330.42750716 245.15194885 330.46072345 259.17406676 330.50239949 273.19625229 C330.5448436 287.59501441 330.56839022 301.9937116 330.57361281 316.3925361 C330.57702435 324.4759046 330.58874885 332.5590748 330.62171555 340.64238167 C330.64975145 347.52796157 330.6607 354.41330252 330.64952008 361.29893506 C330.64434218 364.81017279 330.64716243 368.32091043 330.67198563 371.83207512 C330.69465857 375.64518521 330.68638842 379.45704017 330.67050171 383.27015686 C330.6843838 384.37124804 330.69826588 385.47233922 330.71256864 386.6067968 C330.62355965 395.29329169 328.34197742 401.9081914 322.4375 408.375 C314.08139232 413.63625298 303.84616904 415.84947507 294.43359375 418.57421875 C293.1504556 418.94717642 291.86733939 419.32020961 290.58424377 419.6933136 C287.91510646 420.46830277 285.24507017 421.24010239 282.57446289 422.01000977 C279.17769236 422.98989053 275.78440221 423.98129324 272.39181423 424.97554302 C269.7501692 425.74765155 267.10626073 426.51177215 264.46168709 427.27378273 C262.60915692 427.80959425 260.75893884 428.35337943 258.90879822 428.89738464 C245.09578686 432.84677975 245.09578686 432.84677975 239.0625 432.5 C237.70563919 431.19061682 236.36976418 429.85890247 235.0625 428.5 C232.1241879 428.87600691 229.78547631 429.37750157 227 430.25 C219.24305556 432.5 219.24305556 432.5 216.0625 432.5 C215.98 433.593125 215.8975 434.68625 215.8125 435.8125 C215.0625 439.5 215.0625 439.5 213.4392395 441.09365845 C210.46865764 442.85138272 207.60303961 443.73015924 204.28466797 444.68896484 C203.27377609 444.98481224 203.27377609 444.98481224 202.24246216 445.28663635 C200.01546818 445.93617363 197.78520256 446.57360681 195.5546875 447.2109375 C193.98906222 447.66478762 192.42364596 448.11935933 190.85842896 448.57461548 C186.72796544 449.77375322 182.59459081 450.96254218 178.46057129 452.14935303 C175.13783044 453.10498866 171.81711477 454.06754098 168.49651909 455.03059959 C151.01331601 460.10114397 151.01331601 460.10114397 143.39202881 462.25848389 C140.38346445 463.11243224 137.38994998 464.00649924 134.3994751 464.92169189 C117.14418362 470.12642573 105.09560174 467.85275874 88.05859375 462.78125 C85.96942907 462.17231238 83.87983842 461.56483461 81.78985596 460.95870972 C76.18286278 459.32844776 70.58171745 457.67889662 64.98147202 456.02562714 C59.15285302 454.30854029 53.31906344 452.60921788 47.4855957 450.90869141 C39.16107966 448.4805262 30.8381556 446.04704166 22.51717663 443.60678291 C8.39285245 439.46535489 -5.744337 435.37040027 -19.890625 431.3046875 C-21.83004551 430.74685159 -23.76945304 430.18897053 -25.70884705 429.63104248 C-32.99484461 427.53530772 -40.2809893 425.44009066 -47.56814575 423.34838867 C-51.73320301 422.15249775 -55.89712196 420.95271713 -60.06024933 419.75012589 C-61.56274125 419.31681114 -63.06561873 418.88483045 -64.56893158 418.45437241 C-92.19949874 410.54094359 -92.19949874 410.54094359 -97.09347862 402.6318354 C-100.19319073 396.19006301 -100.50520877 390.51315475 -100.4521637 383.43751526 C-100.46258199 381.65409341 -100.46258199 381.65409341 -100.47321075 379.83464283 C-100.48827703 376.55622907 -100.48556442 373.27840316 -100.47505772 369.99998987 C-100.46804022 366.45591701 -100.48408289 362.91193513 -100.49705505 359.3678894 C-100.51865782 352.43343601 -100.51857776 345.49914695 -100.51042951 338.56467099 C-100.50412062 332.92660658 -100.50527468 327.28858997 -100.51170158 321.65052605 C-100.51260324 320.84700256 -100.51350489 320.04347908 -100.51443387 319.2156064 C-100.51628514 317.58307051 -100.5181477 315.95053463 -100.52002143 314.31799876 C-100.53658694 299.02128026 -100.52789136 283.72465408 -100.51103585 268.42794114 C-100.49634021 254.44485812 -100.51096754 240.46199 -100.53980602 226.47893465 C-100.56922471 212.10708029 -100.58016508 197.73532503 -100.57062382 183.36344188 C-100.5696013 181.73672451 -100.56860669 180.11000712 -100.5676403 178.48328972 C-100.56716391 177.68299564 -100.56668752 176.88270156 -100.5661967 176.05815615 C-100.56403582 170.43014133 -100.57381924 164.8022207 -100.58841133 159.17422676 C-100.60595921 152.31071824 -100.6057823 145.44748362 -100.58305968 138.58398575 C-100.57193949 135.08488119 -100.56870356 131.58625874 -100.58736038 128.08717537 C-100.60329622 124.28748099 -100.58833158 120.48910098 -100.56568909 116.68946838 C-100.57752482 115.59246992 -100.58936054 114.49547146 -100.60155493 113.36523062 C-100.51344716 106.07357047 -98.97535043 100.6247276 -94.9375 94.5 C-92.55078125 92.24609375 -92.55078125 92.24609375 -90.25 90.9375 C-89.48300781 90.48246094 -88.71601562 90.02742188 -87.92578125 89.55859375 C-84.53746832 87.75460003 -82.62281263 87.37747602 -78.75341797 87.38647461 C-77.67244843 87.38655014 -76.59147888 87.38662567 -75.47775269 87.38670349 C-73.72146042 87.39444542 -73.72146042 87.39444542 -71.9296875 87.40234375 C-70.73393097 87.4037587 -69.53817444 87.40517365 -68.30618286 87.40663147 C-64.47493013 87.41224337 -60.64373516 87.42479792 -56.8125 87.4375 C-54.22005293 87.44251347 -51.62760494 87.44707664 -49.03515625 87.45117188 C-42.66924847 87.46221667 -36.30338404 87.47948932 -29.9375 87.5 C-29.9375 82.22 -29.9375 76.94 -29.9375 71.5 C-31.65851929 71.50999275 -31.65851929 71.50999275 -33.41430664 71.52018738 C-44.24286701 71.58108198 -55.07139251 71.62601276 -65.90008545 71.65543652 C-71.46682895 71.67107224 -77.03343389 71.69227242 -82.60009766 71.72631836 C-87.97526405 71.75898623 -93.35029739 71.77686876 -98.72555542 71.78463173 C-100.77320448 71.79016189 -102.82084651 71.80096092 -104.86843872 71.81719017 C-107.74317998 71.83906303 -110.61737601 71.84196279 -113.4921875 71.84057617 C-114.75347221 71.85675491 -114.75347221 71.85675491 -116.04023743 71.8732605 C-122.41008818 71.84015556 -127.84309432 70.71263698 -133.14453125 66.921875 C-133.67433594 66.37015625 -134.20414063 65.8184375 -134.75 65.25 C-135.29269531 64.70859375 -135.83539063 64.1671875 -136.39453125 63.609375 C-140.8832653 57.47287781 -141.43600249 51.95489319 -141.375 44.5625 C-141.39498047 43.70720703 -141.41496094 42.85191406 -141.43554688 41.97070312 C-141.42989478 34.56080431 -139.35928068 29.45995417 -134.6875 23.75 C-128.21036546 18.45052629 -122.58858781 16.9073674 -114.30859375 17.04589844 C-113.38083633 17.04531433 -112.45307892 17.04473022 -111.49720764 17.04412842 C-108.45608003 17.04689661 -105.41595462 17.07792868 -102.375 17.109375 C-100.25651586 17.11684189 -98.13802478 17.1225327 -96.01953125 17.12652588 C-90.46275528 17.14174687 -84.90640219 17.18099838 -79.34979248 17.2253418 C-73.67205525 17.26637075 -67.99424922 17.28455317 -62.31640625 17.3046875 C-51.18991909 17.34749593 -40.06374481 17.41570447 -28.9375 17.5 C-28.63279785 16.5507666 -28.3280957 15.6015332 -28.01416016 14.62353516 C-27.03800781 11.79158659 -26.21910554 10.12245122 -24.3125 7.875 C-23.86648437 7.32585938 -23.42046875 6.77671875 -22.9609375 6.2109375 C-15.88542175 0.22816549 -9.03454466 -0.12340869 0 0 Z M31.0625 71.5 C31.0625 76.78 31.0625 82.06 31.0625 87.5 C84.5225 87.5 137.9825 87.5 193.0625 87.5 C193.0625 82.22 193.0625 76.94 193.0625 71.5 C139.6025 71.5 86.1425 71.5 31.0625 71.5 Z " fill="#010100" transform="translate(140.9375,21.5)"/>
<path d="M0 0 C53.46 0 106.92 0 162 0 C162 6.93 162 13.86 162 21 C153.8125 21.25 153.8125 21.25 151.26098633 21.29785156 C146.35107307 21.51962347 143.48674203 22.22441544 140 26 C139.33319632 29.04279372 139.33319632 29.04279372 140 32 C141.61230499 34.14836385 142.52003724 34.9046535 145.17651367 35.43237305 C146.40978394 35.47164917 146.40978394 35.47164917 147.66796875 35.51171875 C148.56064453 35.54716797 149.45332031 35.58261719 150.37304688 35.61914062 C151.30181641 35.64169922 152.23058594 35.66425781 153.1875 35.6875 C154.12787109 35.72166016 155.06824219 35.75582031 156.03710938 35.79101562 C158.35795393 35.87348218 160.67842148 35.94263403 163 36 C163.25245483 37.04377808 163.25245483 37.04377808 163.51000977 38.10864258 C165.2286859 44.96629001 167.61717155 50.05453991 173.58862305 54.06762695 C179.44673844 57.45386859 184.7887995 57.57177343 191.4375 57.4375 C192.42298828 57.44458984 193.40847656 57.45167969 194.42382812 57.45898438 C202.02578855 57.39349366 208.93494906 56.59863015 214.875 51.5625 C215.57625 50.716875 216.2775 49.87125 217 49 C217.53625 48.4225 218.0725 47.845 218.625 47.25 C220.02257092 44.96306576 220.7611437 42.90210947 221.5859375 40.359375 C221.85196777 39.54436523 222.11799805 38.72935547 222.39208984 37.88964844 C222.5927002 37.26606445 222.79331055 36.64248047 223 36 C226.41659491 35.94183377 229.83306205 35.90634805 233.25 35.875 C234.21808594 35.85824219 235.18617188 35.84148437 236.18359375 35.82421875 C237.11816406 35.81777344 238.05273438 35.81132812 239.015625 35.8046875 C239.87446289 35.79421387 240.73330078 35.78374023 241.61816406 35.77294922 C244.24732771 36.02357675 245.78976111 36.56757 248 38 C250.62737295 41.94105942 250.2807016 45.30230459 250.26069641 49.87571716 C250.26452196 50.79425746 250.26834751 51.71279775 250.27228898 52.65917259 C250.28264237 55.7499714 250.27862239 58.84058525 250.2746582 61.93139648 C250.27900338 64.14207126 250.28418587 66.35274452 250.29014587 68.56341553 C250.3035679 74.57779435 250.304111 80.59211046 250.30158257 86.60650134 C250.30051505 91.62167243 250.30539059 96.63683071 250.310188 101.65199906 C250.32192981 114.15724216 250.32105176 126.66245472 250.31463119 139.16769797 C250.30946153 150.03183849 250.32071768 160.89588936 250.33972941 171.76001214 C250.35909394 182.91109327 250.36707459 194.06214171 250.36360615 205.21324211 C250.36178966 211.47542419 250.3644659 217.73752416 250.37832069 223.99969292 C250.39085853 229.8872311 250.38899332 235.77458934 250.37590981 241.66212463 C250.37353565 243.82611208 250.37630852 245.99011204 250.38453293 248.15408516 C250.39493121 251.10203454 250.38695548 254.04937236 250.3742218 256.99729919 C250.38159609 257.85906484 250.38897037 258.72083048 250.39656812 259.60871023 C250.36438085 263.1366185 250.34389266 265.38203749 248.60609722 268.50479221 C246.63691463 270.33801694 245.14071455 270.87184929 242.5390625 271.53515625 C241.20536621 271.89311279 241.20536621 271.89311279 239.84472656 272.25830078 C238.9059668 272.50306152 237.96720703 272.74782227 237 273 C235.11010798 273.55486388 233.2221047 274.11619702 231.3359375 274.68359375 C221.24430676 277.65986921 211.16784331 280.5090528 200.94140625 282.984375 C196.47472002 284.10132919 192.08724774 285.45933625 187.6875 286.8125 C178.64477908 289.58605952 169.52527987 291.97777398 160.36230469 294.3190918 C149.45685846 297.11463084 138.62310623 300.14194259 127.79199219 303.2109375 C123.00241942 304.56454883 118.2075902 305.89944331 113.40771484 307.21606445 C109.68454083 308.23983044 105.97764188 309.30103528 102.28125 310.41796875 C88.96334889 314.3967551 79.73044354 314.97408173 66.26318359 310.70654297 C61.56948234 309.24121703 56.8447365 307.87862223 52.125 306.5 C51.08110107 306.19392822 50.03720215 305.88785645 48.96166992 305.57250977 C41.94217025 303.52728556 34.90403393 301.67215023 27.80078125 299.9453125 C21.43051025 298.36092855 15.12271451 296.55735568 8.80322266 294.78320312 C3.03987477 293.17295926 -2.73079953 291.58911887 -8.5 290 C-17.96757888 287.3899893 -27.43396781 284.77595671 -36.89453125 282.140625 C-39.72354556 281.35302092 -42.55447004 280.5727652 -45.38671875 279.796875 C-49.12511534 278.77146295 -52.8585567 277.72946447 -56.58935547 276.67675781 C-58.28757394 276.20000456 -59.98726457 275.72847983 -61.68798828 275.26074219 C-64.44206625 274.50063019 -67.18998964 273.72097944 -69.9375 272.9375 C-70.79649902 272.70426025 -71.65549805 272.47102051 -72.54052734 272.23071289 C-73.34055176 271.99860107 -74.14057617 271.76648926 -74.96484375 271.52734375 C-75.6724585 271.32874756 -76.38007324 271.13015137 -77.10913086 270.92553711 C-79.74955239 269.63311129 -80.54355981 268.59294273 -82 266 C-82.45349321 263.00617298 -82.41313003 260.03396841 -82.39440918 257.01075745 C-82.40050028 256.09206829 -82.40659139 255.17337914 -82.41286707 254.22685093 C-82.42954658 251.14142487 -82.42471417 248.05640927 -82.41992188 244.97094727 C-82.4272593 242.76174489 -82.43584456 240.55254635 -82.44558716 238.34335327 C-82.46784557 232.3372138 -82.47073169 226.33121134 -82.46883965 220.32503629 C-82.46872015 215.31487266 -82.47727564 210.30473829 -82.48561716 205.29458278 C-82.50596787 192.80113575 -82.50699558 180.30775561 -82.49981004 167.81430274 C-82.49423388 156.96377313 -82.5150628 146.11347958 -82.54817051 135.26300514 C-82.58190076 124.12205281 -82.59660197 112.98118678 -82.59245348 101.84017605 C-82.59038254 95.58518215 -82.5959186 89.33042335 -82.62034607 83.07547188 C-82.64255396 77.19438097 -82.64078471 71.31378251 -82.62041855 65.43268967 C-82.61699803 63.27234327 -82.62214213 61.1119641 -82.63640213 58.95166206 C-82.6545073 56.00593732 -82.64191027 53.06189876 -82.62145996 50.1162262 C-82.63397781 49.25805552 -82.64649566 48.39988484 -82.65939283 47.51570898 C-82.59426645 43.15061492 -82.40055234 41.50518563 -79.59416962 37.96571255 C-76.96281206 35.97182111 -76.01027144 35.38892094 -72.79296875 35.51171875 C-71.66665039 35.53588867 -71.66665039 35.53588867 -70.51757812 35.56054688 C-69.36418945 35.62338867 -69.36418945 35.62338867 -68.1875 35.6875 C-67.39923828 35.71005859 -66.61097656 35.73261719 -65.79882812 35.75585938 C-63.86506071 35.81445839 -61.93227833 35.90413173 -60 36 C-59.84144531 36.58007812 -59.68289062 37.16015625 -59.51953125 37.7578125 C-57.44895219 44.69024848 -54.92157256 49.15158909 -48.62890625 53.1328125 C-42.98591176 55.84919073 -37.27649667 55.6222574 -31.125 55.5625 C-30.00480469 55.58634766 -28.88460937 55.61019531 -27.73046875 55.63476562 C-19.00543875 55.61949428 -12.07520006 53.76172314 -5.5625 47.75 C-4.14217586 45.25022952 -3.28339605 43.04736162 -2.40234375 40.328125 C-2.13800537 39.51762695 -1.87366699 38.70712891 -1.60131836 37.87207031 C-1.4028833 37.25428711 -1.20444824 36.63650391 -1 36 C-0.40493243 35.99761165 0.19013514 35.99522329 0.80323505 35.99276257 C15.2749793 35.93365571 29.74656877 35.8581335 44.21812916 35.76428509 C51.21644906 35.7192977 58.21471773 35.67988997 65.21313477 35.65356445 C71.96297209 35.62815841 78.71255131 35.58727386 85.46225548 35.53681374 C88.04150254 35.52008766 90.62078899 35.50860929 93.20008278 35.50238609 C96.80396169 35.49280749 100.40725116 35.46482252 104.01098633 35.43237305 C105.62183609 35.43452568 105.62183609 35.43452568 107.26522827 35.4367218 C108.24539413 35.42418365 109.22556 35.41164551 110.23542786 35.39872742 C111.08808637 35.39411845 111.94074488 35.38950949 112.81924152 35.38476086 C115.50293974 34.91126412 116.3910841 34.17042696 118 32 C118.50465549 28.61159885 118.48158571 26.77248227 116.65509033 23.8427124 C112.41682638 20.90122998 108.12132685 21.42999132 103.08105469 21.45410156 C101.96856354 21.44376389 100.85607239 21.43342621 99.70986938 21.42277527 C96.03039165 21.39326277 92.35146198 21.39184625 88.671875 21.390625 C86.12167303 21.37564914 83.57148078 21.35892326 81.02130127 21.34051514 C74.99360572 21.30123558 68.96609663 21.27961548 62.938308 21.26654124 C56.07488729 21.25066979 49.21165063 21.21225367 42.3483367 21.17194796 C28.23225742 21.08955429 14.11626389 21.03843504 0 21 C0 14.07 0 7.14 0 0 Z " fill="#AA7A63" transform="translate(172,124)"/>
<path d="M0 0 C2.29004818 1.19726853 4.25678983 2.52189387 6.3203125 4.08203125 C8.5354542 5.74526476 10.54102657 7.22271375 13.0625 8.375 C15.32704642 8.05085904 16.93268465 7.2833916 18.9765625 6.26953125 C25.72452333 3.3757428 33.04942502 5.56088751 39.5625 8.09375 C42.00401355 9.34502569 43.39007483 10.5238295 45.25 12.5 C49.17086452 16.30666458 53.97602555 16.22537516 59.14257812 16.69458008 C67.32975803 17.47717816 72.62303628 20.02895899 78.0625 26.375 C83.64701635 34.13127271 83.76864533 41.11148827 83.0625 50.375 C80.83653035 58.60096965 80.83653035 58.60096965 78.0625 61.375 C77.83057135 62.88969448 77.65034762 64.41254562 77.5 65.9375 C77.41621094 66.76378906 77.33242188 67.59007812 77.24609375 68.44140625 C77.18550781 69.07949219 77.12492188 69.71757812 77.0625 70.375 C78.00456299 70.35405273 78.94662598 70.33310547 79.91723633 70.31152344 C83.46405114 70.24272511 87.01014135 70.19290186 90.55737305 70.15527344 C92.08287859 70.13534689 93.60830968 70.10819515 95.13354492 70.07324219 C107.64834545 69.79394897 118.05365809 71.00648894 127.9921875 79.32421875 C136.63210812 87.88263068 140.38754645 96.87768073 140.45368958 108.89353943 C140.43987495 110.69227257 140.43987495 110.69227257 140.42578125 112.52734375 C140.42652901 114.40940269 140.42652901 114.40940269 140.42729187 116.32948303 C140.42495826 118.97477461 140.41687386 121.6192544 140.39868164 124.2644043 C140.37601943 127.63091161 140.37545134 130.99696948 140.38219929 134.36353207 C140.38637225 137.60566901 140.37434543 140.84772837 140.36328125 144.08984375 C140.36419266 145.28697495 140.36510406 146.48410614 140.36604309 147.71751404 C140.26306024 159.97671608 138.28394357 170.41574616 129.81640625 179.7109375 C118.85835921 190.10765919 106.80299655 190.81612136 92.4375 190.5625 C90.94141979 190.5474192 89.4453248 190.53373683 87.94921875 190.52148438 C84.32000032 190.48876305 80.69134752 190.43717056 77.0625 190.375 C77.09947998 192.02592651 77.09947998 192.02592651 77.13720703 193.71020508 C77.1571455 195.16747278 77.17648231 196.6247488 77.1953125 198.08203125 C77.21311768 198.80588013 77.23092285 199.529729 77.24926758 200.2755127 C77.30784247 206.32078578 76.23767113 210.04600678 72.0625 214.375 C71.59328125 214.86226562 71.1240625 215.34953125 70.640625 215.8515625 C63.93635815 222.01516267 57.37426854 222.82168438 48.69604492 222.79492188 C47.67720718 222.80339142 46.65836945 222.81186096 45.60865784 222.82058716 C42.2532998 222.84391302 38.89840161 222.84498023 35.54296875 222.84375 C33.20038166 222.85085489 30.85779629 222.85855437 28.51521301 222.86682129 C23.60864423 222.8802565 18.70223631 222.8818394 13.7956543 222.87597656 C7.52452107 222.8700856 1.25416339 222.90065264 -5.01681995 222.94109344 C-9.85459005 222.96701245 -14.69217455 222.96984392 -19.5300045 222.96620178 C-21.84115228 222.96788949 -24.15230896 222.97749817 -26.46338844 222.99534607 C-29.70373206 223.01761497 -32.94252057 223.00779202 -36.18286133 222.99023438 C-37.12708954 223.00349762 -38.07131775 223.01676086 -39.04415894 223.03042603 C-46.61697879 222.93564176 -53.28808704 220.82441088 -58.88767719 215.53170013 C-63.52257369 210.39026419 -65.18577987 206.55962147 -65.2121582 199.54272461 C-65.21726913 198.86420944 -65.22238007 198.18569427 -65.22764587 197.48661804 C-65.24151471 195.25010289 -65.24058767 193.01389671 -65.23828125 190.77734375 C-65.24216875 189.22082912 -65.24650353 187.66431554 -65.25126648 186.10780334 C-65.25872215 182.84877072 -65.25844149 179.58984644 -65.25317383 176.33081055 C-65.24737 172.15195051 -65.26433502 167.97353238 -65.2875185 163.79474545 C-65.30223746 160.58200991 -65.30313025 157.36938139 -65.30000877 154.15661812 C-65.30052259 152.61561773 -65.30577157 151.07461143 -65.31582069 149.53364372 C-65.32813715 147.38142849 -65.32142408 145.23008184 -65.30981445 143.07788086 C-65.31044388 141.85306503 -65.3110733 140.62824921 -65.3117218 139.36631775 C-64.9375 136.375 -64.9375 136.375 -63.6603241 134.48731995 C-61.23202307 132.9195176 -58.80542683 132.91224517 -55.97265625 132.78125 C-53.9375 133.375 -53.9375 133.375 -49.9375 138.375 C-49.9375 150.585 -49.9375 162.795 -49.9375 175.375 C-12.9775 175.375 23.9825 175.375 62.0625 175.375 C62.0625 139.735 62.0625 104.095 62.0625 67.375 C22.95327603 63.33343106 22.95327603 63.33343106 14.0625 73.375 C13.34666614 75.59215388 13.34666614 75.59215388 13.46655273 77.89892578 C13.4598204 78.76397736 13.45308807 79.62902893 13.44615173 80.52029419 C13.47087303 81.90630325 13.47087303 81.90630325 13.49609375 83.3203125 C13.49045914 84.28597137 13.48482452 85.25163025 13.47901917 86.24655151 C13.46258109 89.33152836 13.47807495 92.41507347 13.5 95.5 C13.65608219 124.16483353 13.65608219 124.16483353 7.15087891 131.54321289 C1.74900341 136.74874485 -3.84063522 139.48040679 -11.375 139.8125 C-17.81343286 139.59230736 -22.15233347 137.95842408 -26.87890625 133.57421875 C-33.9028466 126.02238309 -35.36920586 119.64410535 -35.2734375 109.5859375 C-35.28594202 107.48958019 -35.29897877 105.393226 -35.3125 103.296875 C-35.3164388 100.0138861 -35.3124166 96.73120243 -35.29785156 93.44824219 C-35.28929059 90.26451206 -35.31093699 87.08205539 -35.3359375 83.8984375 C-35.31592178 82.42798477 -35.31592178 82.42798477 -35.29550171 80.92782593 C-35.34327887 76.52425925 -35.50506566 74.05267646 -37.91259766 70.27978516 C-41.88272228 67.77979223 -45.31605442 67.4857536 -49.9375 67.375 C-49.91131592 68.56053467 -49.88513184 69.74606934 -49.8581543 70.9675293 C-49.76750979 75.37488866 -49.71019912 79.782166 -49.6628418 84.19018555 C-49.63773001 86.09625107 -49.60363355 88.00222059 -49.56030273 89.90795898 C-49.49950256 92.65111998 -49.47125755 95.39300586 -49.44921875 98.13671875 C-49.42341232 98.98586349 -49.3976059 99.83500824 -49.37101746 100.70988464 C-49.36895121 105.08936731 -49.52106443 106.83338601 -52.27661133 110.41723633 C-54.9375 112.375 -54.9375 112.375 -58 112.9375 C-61.78842444 112.21205702 -62.70549338 111.53641891 -64.9375 108.375 C-65.51962563 104.9142552 -65.44660227 101.48619102 -65.40625 97.984375 C-65.41329956 96.96579407 -65.42034912 95.94721313 -65.4276123 94.89776611 C-65.45708873 90.54483016 -65.44051374 86.19234118 -65.42822266 81.83935547 C-65.42583265 78.65825957 -65.44681678 75.47788159 -65.46875 72.296875 C-65.45177063 70.83553131 -65.45177063 70.83553131 -65.43444824 69.34466553 C-65.47520777 63.79184349 -66.165709 59.85960134 -68.98132324 55.03399658 C-72.19214074 49.46312779 -71.43178461 42.56728775 -70.9375 36.375 C-68.67832539 28.44333261 -62.80225813 23.55354842 -55.9375 19.375 C-52.92259443 18.37003148 -50.89568308 18.27164697 -47.75 18.3125 C-46.84894531 18.32152344 -45.94789063 18.33054688 -45.01953125 18.33984375 C-44.33246094 18.35144531 -43.64539063 18.36304688 -42.9375 18.375 C-42.82277344 17.79492188 -42.70804688 17.21484375 -42.58984375 16.6171875 C-40.47189902 9.33754514 -34.71944181 5.17426567 -28.40234375 1.6015625 C-19.96627686 -2.5964169 -8.92964009 -3.79312145 0 0 Z " fill="#030202" transform="translate(247.9375,176.625)"/>
<path d="M0 0 C1.53113434 0.00045319 1.53113434 0.00045319 3.09320068 0.00091553 C4.18811829 0.02156067 5.28303589 0.04220581 6.41113281 0.06347656 C7.53747131 0.06913635 8.66380981 0.07479614 9.82427979 0.08062744 C13.42137164 0.10301611 17.01746707 0.15321943 20.61425781 0.20410156 C23.05304551 0.22416324 25.49184882 0.24241458 27.93066406 0.25878906 C33.90891251 0.30288945 39.88641623 0.37193626 45.86425781 0.45410156 C45.86425781 7.71410156 45.86425781 14.97410156 45.86425781 22.45410156 C40.94519531 22.51597656 40.94519531 22.51597656 35.92675781 22.57910156 C26.02960278 22.78643125 26.02960278 22.78643125 17.63936555 27.5356316 C11.90854206 33.729291 10.12237936 39.93556972 10.2293396 48.20079041 C10.22153965 49.14064161 10.21373969 50.08049282 10.20570338 51.04882437 C10.18586967 54.17642987 10.20151448 57.30280689 10.21728516 60.43041992 C10.21050519 62.68151048 10.20159993 64.93259549 10.19073486 67.18367004 C10.16797918 73.28292643 10.17676314 79.38175899 10.19263029 85.4810226 C10.20530999 91.8718457 10.19354327 98.26263308 10.18569946 104.65345764 C10.17602636 116.0728424 10.19154329 127.49199296 10.21699615 138.9113381 C10.23932785 149.25015077 10.23545704 159.58868264 10.21240234 169.92749023 C10.18560036 181.95227385 10.17570857 193.97684558 10.19046366 206.00166994 C10.1982467 212.36012387 10.19933123 218.71838468 10.18278122 225.0768261 C10.16830371 231.05652359 10.17841893 237.03569258 10.2072525 243.01533318 C10.21384598 245.20582198 10.21199556 247.3963555 10.20093918 249.58682632 C9.81082255 266.64320432 9.81082255 266.64320432 18.23925781 280.89160156 C24.7876086 284.78942941 31.81438343 286.70636756 39.11425781 288.70410156 C40.20182373 289.00566162 41.28938965 289.30722168 42.40991211 289.61791992 C51.61674631 292.15349718 60.86285691 294.52874838 70.11401367 296.89624023 C77.66796074 298.84414774 85.14248027 300.9732501 92.60009766 303.25952148 C101.26802845 305.90937161 110.01349106 308.25300408 118.76367188 310.61376953 C124.57301645 312.18823914 130.37473218 313.79040934 136.17675781 315.39160156 C137.39371338 315.72740234 138.61066895 316.06320312 139.86450195 316.40917969 C150.15974181 319.25338727 160.44753995 322.123888 170.73144531 325.00878906 C171.62492676 325.25781982 172.5184082 325.50685059 173.43896484 325.76342773 C175.5016144 326.35082814 177.55175114 326.98188452 179.59863281 327.62207031 C191.49533325 330.65316743 202.18672524 327.89103796 213.46972656 324.19824219 C217.90869028 322.81875999 222.42172176 321.71970359 226.92675781 320.57910156 C234.95403832 318.52171457 242.91908442 316.30827484 250.86425781 313.95410156 C259.60828948 311.36364416 268.38505352 308.98366545 277.21972656 306.72363281 C285.15334388 304.67799342 293.00506054 302.39455315 300.85961914 300.06616211 C307.89072658 297.99508543 314.9521917 296.08828489 322.05175781 294.26660156 C329.07326747 292.46395608 336.03364572 290.59699312 342.93847656 288.38378906 C345.05609792 287.71090003 347.18555274 287.07488245 349.32128906 286.46191406 C358.24389953 283.87826255 363.97976229 281.57986761 368.88378906 273.45410156 C370.50725168 270.14249654 370.98877659 267.0788494 371.00406551 263.4134655 C371.00975676 262.61397071 371.015448 261.81447592 371.0213117 260.99075401 C371.02308152 259.68192211 371.02308152 259.68192211 371.02488708 258.34664917 C371.0299749 257.41515364 371.03506272 256.48365811 371.04030472 255.52393544 C371.05603123 252.39502745 371.06455483 249.26614256 371.07299805 246.13720703 C371.08253633 243.89671176 371.09242748 241.65621798 371.10264587 239.41572571 C371.13403334 232.05093128 371.15429769 224.68612555 371.17285156 217.32128906 C371.17779755 215.44168417 371.17779755 215.44168417 371.18284345 213.52410746 C371.21362377 201.706089 371.24049188 189.88806742 371.25726223 178.07002068 C371.26121149 175.33411526 371.26521452 172.59820993 371.26928711 169.86230469 C371.27079965 168.84235618 371.27079965 168.84235618 371.27234275 167.80180265 C371.28934057 156.79297312 371.33044184 145.78436873 371.3813101 134.77564906 C371.43314644 123.46404155 371.4617302 112.1525925 371.46945912 100.8408519 C371.47441395 94.49339886 371.4894801 88.14634612 371.52920341 81.79900742 C371.56609686 75.82513813 371.57447004 69.85189734 371.56119728 63.87793541 C371.56125118 61.6890289 371.57152833 59.50009434 371.59294891 57.31129265 C372.16681754 41.70631279 372.16681754 41.70631279 364.86425781 28.45410156 C357.63434167 22.30098144 349.50222914 22.11252552 340.42675781 21.82910156 C339.40904297 21.79042969 338.39132812 21.75175781 337.34277344 21.71191406 C334.85021149 21.61829671 332.35726042 21.53514014 329.86425781 21.45410156 C329.86425781 14.52410156 329.86425781 7.59410156 329.86425781 0.45410156 C337.22700756 0.36368427 344.58945328 0.29031945 351.95264053 0.24685287 C355.37179462 0.22598956 358.79054875 0.19769651 362.20947266 0.15234375 C366.14122712 0.10051538 370.07282039 0.08114579 374.00488281 0.06347656 C375.23104309 0.04283142 376.45720337 0.02218628 377.72052002 0.00091553 C378.86140076 0.0006134 380.00228149 0.00031128 381.17773438 0 C382.18145081 -0.00888245 383.18516724 -0.01776489 384.21929932 -0.0269165 C387.65361982 0.5976567 388.67402722 1.77863591 390.86425781 4.45410156 C391.36335313 6.78013325 391.36335313 6.78013325 391.36203575 9.40168762 C391.37123334 10.40343616 391.38043093 11.40518469 391.38990724 12.43728924 C391.37447655 14.08493629 391.37447655 14.08493629 391.35873413 15.76586914 C391.36356296 16.93436055 391.36839179 18.10285196 391.37336695 19.3067522 C391.38269915 22.55106318 391.37405174 25.79475706 391.35783839 29.03902292 C391.34469036 32.53737396 391.35458001 36.03566898 391.36160278 39.5340271 C391.3716911 46.38763431 391.36039826 53.24104866 391.34190218 60.09463191 C391.32114444 68.07274134 391.32127429 76.05080896 391.32224734 84.02894032 C391.32324887 98.26217284 391.30491782 112.49531553 391.27587891 126.72851562 C391.24770349 140.54558957 391.23353734 154.36258443 391.23486328 168.1796875 C391.23494319 169.03065573 391.23502311 169.88162396 391.23510544 170.7583791 C391.23518615 171.60786338 391.23526686 172.45734766 391.23535001 173.33257389 C391.23672927 189.05392203 391.22495201 204.77523651 391.20704358 220.49657375 C391.20100731 226.0601864 391.19888403 231.62379288 391.19797897 237.18740845 C391.19661548 243.96586894 391.18769712 250.74427271 391.16931336 257.52270913 C391.16007151 260.9824075 391.15398851 264.44203329 391.15650177 267.90174484 C391.157479 271.64869747 391.14621295 275.39541414 391.13168335 279.14233398 C391.13478055 280.24076535 391.13787776 281.33919672 391.14106882 282.47091389 C391.13139548 283.97353669 391.13139548 283.97353669 391.12152672 285.5065155 C391.12011787 286.37162845 391.11870902 287.23674139 391.11725748 288.12806988 C390.83960007 290.68080021 390.22419722 292.28630023 388.86425781 294.45410156 C382.19753009 298.37993346 373.91583861 299.9212644 366.48925781 301.82910156 C356.76947138 304.38458365 347.1254224 307.10071181 337.51660156 310.04394531 C334.35218758 311.01264347 331.17942782 311.93880861 327.99316406 312.83300781 C327.21336182 313.0539209 326.43355957 313.27483398 325.63012695 313.50244141 C324.16899801 313.9145991 322.70604347 314.32036462 321.2409668 314.71826172 C316.03178981 316.18964277 316.03178981 316.18964277 311.86425781 319.45410156 C311.05479359 322.55607554 311.05479359 322.55607554 310.86425781 325.45410156 C308.28457984 326.32099335 305.70149654 327.17283945 303.11425781 328.01660156 C302.38464844 328.26345703 301.65503906 328.5103125 300.90332031 328.76464844 C299.83984375 329.10786133 299.83984375 329.10786133 298.75488281 329.45800781 C297.78083496 329.78007202 297.78083496 329.78007202 296.78710938 330.10864258 C294.42485463 330.53304462 293.11156212 330.29369664 290.86425781 329.45410156 C290.21424805 328.93678467 289.56423828 328.41946777 288.89453125 327.88647461 C285.74198086 325.6623268 283.39499461 326.3985692 279.70996094 326.89794922 C274.54947949 327.90649218 269.60662227 329.51065235 264.61425781 331.14160156 C262.3000525 331.87621004 259.98493132 332.60793897 257.66894531 333.33691406 C255.94756348 333.87880371 255.94756348 333.87880371 254.19140625 334.43164062 C249.4025197 335.90330608 244.57957812 337.22596767 239.73925781 338.51660156 C230.86899577 340.88699737 222.05054057 343.40783305 213.24462891 346.00708008 C210.4531136 346.82960163 207.65937371 347.64390528 204.86425781 348.45410156 C203.88247559 348.74164307 202.90069336 349.02918457 201.88916016 349.32543945 C200.92574707 349.5999292 199.96233398 349.87441895 198.96972656 350.15722656 C198.10887451 350.40504883 197.24802246 350.65287109 196.36108398 350.90820312 C187.88400697 352.76160531 179.85890947 349.66892374 171.88964844 347.03051758 C164.94500817 344.73999289 157.93572665 342.81244054 150.86425781 340.95410156 C142.53697189 338.75584711 134.3124804 336.39531906 126.12597656 333.72363281 C119.43180973 331.56827075 112.66267637 329.74976229 105.86425781 327.95410156 C97.5372499 325.75469578 89.31253934 323.39533829 81.12597656 320.72363281 C74.43180808 318.56827022 67.66267097 316.74978857 60.86425781 314.95410156 C52.4513239 312.73169093 44.13715612 310.34852115 35.86230469 307.65991211 C28.00669986 305.12920766 20.05376016 302.98338872 12.08300781 300.84863281 C11.23351562 300.61740723 10.38402344 300.38618164 9.50878906 300.14794922 C7.6600245 299.66288747 5.80207155 299.21213156 3.93847656 298.78759766 C2.97554687 298.55766113 2.01261719 298.32772461 1.02050781 298.09082031 C0.15232422 297.89576904 -0.71585938 297.70071777 -1.61035156 297.49975586 C-5.22237038 296.00417614 -6.75210013 294.60855642 -9.13574219 291.45410156 C-9.88889529 287.63707321 -9.8057011 283.86407491 -9.76393127 279.9841156 C-9.77102566 278.81068621 -9.77812005 277.63725682 -9.78542942 276.42826897 C-9.7999872 273.17470735 -9.79211332 269.922091 -9.77470648 266.66857159 C-9.76134089 263.15862565 -9.77676653 259.64879025 -9.78852844 256.13885498 C-9.80691501 249.26463815 -9.79838635 242.39070542 -9.78044022 235.51649743 C-9.76642006 229.93072236 -9.76252015 224.34502445 -9.76588249 218.75923347 C-9.76635993 217.96453714 -9.76683738 217.16984081 -9.76732929 216.35106276 C-9.7683556 214.73671434 -9.76941096 213.12236593 -9.77049505 211.50801755 C-9.77906402 197.23095546 -9.76238015 182.95403064 -9.73266602 168.67700195 C-9.70382268 154.81821936 -9.69674736 140.95963446 -9.7121582 127.10083008 C-9.72891191 112.01371023 -9.73296349 96.92668428 -9.71544784 81.839562 C-9.71360343 80.23142597 -9.7117687 78.62328993 -9.70994377 77.01515388 C-9.70903168 76.22389203 -9.70811959 75.43263017 -9.70717986 74.61739067 C-9.70156971 69.03671948 -9.70488605 63.45609406 -9.71148872 57.87542534 C-9.71921298 51.07680921 -9.71250211 44.27838783 -9.68731368 37.47981101 C-9.67479795 34.00990185 -9.6686969 30.54029622 -9.67985535 27.07037544 C-9.68849873 23.3122957 -9.67267912 19.5551087 -9.65040588 15.79710388 C-9.65864665 14.69546369 -9.66688742 13.59382349 -9.67537791 12.45880026 C-9.66433022 11.45418503 -9.65328253 10.4495698 -9.64190006 9.41451168 C-9.64070858 8.54690305 -9.6395171 7.67929441 -9.63828951 6.78539461 C-8.50795169 1.54181141 -4.98314205 -0.04933804 0 0 Z " fill="#FDCE63" transform="translate(65.1357421875,123.5458984375)"/>
<path d="M0 0 C1.43687788 -0.06608283 2.87463563 -0.11321526 4.3125 -0.15234375 C5.11300781 -0.18062256 5.91351563 -0.20890137 6.73828125 -0.23803711 C9 0 9 0 12 2.4375 C12.66 3.283125 13.32 4.12875 14 5 C14.33 5.33 14.66 5.66 15 6 C15.09631155 7.42045373 15.12515477 8.84557223 15.12597656 10.26928711 C15.12978333 11.17791 15.13359009 12.0865329 15.13751221 13.02268982 C15.13853943 14.01422562 15.13956665 15.00576141 15.140625 16.02734375 C15.15896954 18.12045345 15.17854134 20.21355268 15.19921875 22.30664062 C15.22806725 25.61126099 15.24999669 28.9152167 15.25048828 32.2199707 C15.25384667 35.40636355 15.28855922 38.59122 15.328125 41.77734375 C15.3210553 42.75066147 15.3139856 43.72397919 15.30670166 44.72679138 C15.44227627 52.4653984 17.44078762 59.17672417 22.81378174 64.948349 C28.34317997 70.03647815 33.63662771 71.52962292 41.08203125 71.37890625 C47.1733217 70.58793547 52.72634334 67.75028085 56.9375 63.25 C61.55835978 55.9686452 62.4277537 48.93775636 62.37109375 40.453125 C62.38845929 38.45442522 62.40604381 36.45572734 62.42382812 34.45703125 C62.43393087 31.34094954 62.43748639 28.22498421 62.43579102 25.10888672 C62.43935741 22.07745226 62.46666433 19.04690206 62.49609375 16.015625 C62.48791122 15.08534485 62.4797287 14.1550647 62.47129822 13.19659424 C62.52030472 8.94077403 62.61403945 6.62018607 64.90649414 2.93652344 C76.45256377 -7.74375928 96.27167642 0 112 0 C112 35.64 112 71.28 112 108 C75.04 108 38.08 108 0 108 C-0.33 95.79 -0.66 83.58 -1 71 C-5.20943058 66.26352314 -5.20943058 66.26352314 -8 65 C-8 58.4 -8 51.8 -8 45 C-6.02 44.01 -4.04 43.02 -2 42 C-0.30973863 38.61947726 -0.75555041 34.77739858 -0.68359375 31.0546875 C-0.66281265 30.1696756 -0.64203156 29.2846637 -0.62062073 28.37283325 C-0.55513402 25.54030259 -0.49624438 22.70767775 -0.4375 19.875 C-0.39431394 17.95702143 -0.35069963 16.03905246 -0.30664062 14.12109375 C-0.19945353 9.41415949 -0.0981836 4.70713033 0 0 Z " fill="#FECF63" transform="translate(198,244)"/>
<path d="M0 0 C0.00146521 0.86136335 0.00146521 0.86136335 0.00296003 1.74012798 C0.06125069 35.78552641 0.13506156 69.83085324 0.22898628 103.87617182 C0.24025425 107.96538052 0.25139273 112.05458956 0.26245117 116.14379883 C0.26465486 116.95787587 0.26685854 117.77195291 0.269129 118.61069895 C0.30448718 131.78662311 0.32935966 144.96254722 0.35034702 158.13850122 C0.37212086 171.66144101 0.40518632 185.18431931 0.44870156 198.70720679 C0.47519102 207.04941912 0.49290631 215.39155485 0.49934604 223.73380715 C0.50460821 229.45686763 0.52085299 235.17983178 0.54566566 240.90284061 C0.55965238 244.20317204 0.56723233 247.5032975 0.56500816 250.80366325 C0.56335572 254.38716801 0.58005347 257.97014171 0.60127258 261.55357361 C0.59642501 262.58958692 0.59157743 263.62560023 0.58658296 264.69300789 C0.65955699 272.16968984 1.39800623 278.9881049 6.41918945 284.80029297 C11.11334637 288.16332732 16.83430714 289.54163731 22.29296875 291.1953125 C24.17935568 291.786307 26.06574169 292.37730444 27.95209217 292.96841526 C29.96742574 293.59697521 31.98479808 294.21852944 34.00292969 294.83804321 C38.24471534 296.14040868 42.48027832 297.46221521 46.71484375 298.7878418 C51.10619967 300.16188564 55.49774042 301.53528286 59.89120483 302.90257263 C73.23443898 307.0568183 86.53865753 311.32589214 99.8352356 315.62716675 C105.88368713 317.58348097 111.93406784 319.53380873 117.984375 321.484375 C119.7347683 322.04885597 119.7347683 322.04885597 121.52052307 322.6247406 C132.89356685 326.29105369 144.27265461 329.93835979 155.65551758 333.57406616 C157.69258721 334.22474317 159.72953707 334.87579528 161.76635742 335.5272522 C164.54700012 336.41644577 167.32810413 337.30417975 170.109375 338.19140625 C170.91377014 338.44879578 171.71816528 338.7061853 172.54693604 338.97137451 C174.02718757 339.44276166 175.50946428 339.90785301 176.99401855 340.36550903 C178.82147778 340.94353351 180.62777257 341.58742063 182.43066406 342.23803711 C191.71211644 344.2193923 200.70701166 340.88197266 209.5625 338.22265625 C210.91571363 337.82363767 212.26918176 337.42548138 213.62287903 337.02810669 C216.54570441 336.16842826 219.46687759 335.30342094 222.38687134 334.43417358 C227.07777922 333.03799844 231.77222517 331.65401411 236.4675293 330.27270508 C237.67854765 329.91640597 237.67854765 329.91640597 238.91403103 329.5529089 C240.57780035 329.06343121 242.24158167 328.5739943 243.90537453 328.08459663 C246.48156655 327.32641747 249.05742083 326.56709937 251.63322449 325.80760193 C265.0204564 321.86255982 278.42271264 317.97081499 291.83203125 314.1015625 C292.83086208 313.81333303 293.82969292 313.52510357 294.85879135 313.22813988 C301.84294281 311.21314209 308.82766063 309.20011168 315.8125 307.1875 C322.38465873 305.293695 328.95665439 303.39932779 335.52816391 301.5032711 C337.30134745 300.99174133 339.07459333 300.48042757 340.84790421 299.96933937 C349.41535191 297.49965282 357.97888426 295.01951187 366.52099609 292.46337891 C367.16779548 292.27009286 367.81459486 292.07680681 368.48099422 291.87766361 C371.41795412 290.99914034 374.35318521 290.11542232 377.28608704 289.22343445 C378.27537704 288.92580704 379.26466705 288.62817963 380.28393555 288.3215332 C381.13086472 288.0639473 381.97779388 287.80636139 382.85038757 287.54096985 C385 287 385 287 388 287 C388.0625 289.75 388.0625 289.75 387 293 C381.06878029 296.7904416 373.64814722 298.43442734 366.9375 300.3125 C364.80984669 300.92040095 362.68224399 301.52847903 360.5546875 302.13671875 C359.47155273 302.44399902 358.38841797 302.7512793 357.27246094 303.06787109 C351.02390667 304.84771145 344.79034791 306.67920938 338.55541992 308.50610352 C333.99457549 309.84093866 329.43187447 311.16473818 324.85546875 312.4453125 C324.07163818 312.66751465 323.28780762 312.8897168 322.48022461 313.11865234 C321.04680878 313.52443377 319.61153848 313.92375044 318.17407227 314.31494141 C314.58799836 315.33796108 311.57025277 316.23011595 309 319 C308.19053578 322.10197397 308.19053578 322.10197397 308 325 C305.42032203 325.86689178 302.83723873 326.71873789 300.25 327.5625 C299.52039063 327.80935547 298.79078125 328.05621094 298.0390625 328.31054688 C296.97558594 328.65375977 296.97558594 328.65375977 295.890625 329.00390625 C294.91657715 329.32597046 294.91657715 329.32597046 293.92285156 329.65454102 C291.56059682 330.07894305 290.24730431 329.83959508 288 329 C287.34999023 328.48268311 286.69998047 327.96536621 286.03027344 327.43237305 C282.87772305 325.20822524 280.5307368 325.94446764 276.84570312 326.44384766 C271.68522167 327.45239062 266.74236446 329.05655079 261.75 330.6875 C259.43579468 331.42210848 257.1206735 332.15383741 254.8046875 332.8828125 C253.08330566 333.42470215 253.08330566 333.42470215 251.32714844 333.97753906 C246.53826189 335.44920452 241.71532031 336.77186611 236.875 338.0625 C228.00473796 340.4328958 219.18628276 342.95373148 210.38037109 345.55297852 C207.58885578 346.37550007 204.79511589 347.18980372 202 348 C201.01821777 348.2875415 200.03643555 348.57508301 199.02490234 348.87133789 C198.06148926 349.14582764 197.09807617 349.42031738 196.10546875 349.703125 C195.2446167 349.95094727 194.38376465 350.19876953 193.49682617 350.45410156 C185.01974916 352.30750375 176.99465166 349.21482217 169.02539062 346.57641602 C162.08075036 344.28589133 155.07146884 342.35833898 148 340.5 C139.67271408 338.30174555 131.44822259 335.94121749 123.26171875 333.26953125 C116.56755192 331.11416919 109.79841856 329.29566073 103 327.5 C94.67299209 325.30059422 86.44828153 322.94123673 78.26171875 320.26953125 C71.56755027 318.11416865 64.79841315 316.295687 58 314.5 C49.58706608 312.27758937 41.27289831 309.89441958 32.99804688 307.20581055 C25.14244205 304.6751061 17.18950235 302.52928715 9.21875 300.39453125 C8.36925781 300.16330566 7.51976563 299.93208008 6.64453125 299.69384766 C4.79576669 299.20878591 2.93781373 298.75803 1.07421875 298.33349609 C0.11128906 298.10355957 -0.85164063 297.87362305 -1.84375 297.63671875 C-2.71193359 297.44166748 -3.58011719 297.24661621 -4.47460938 297.0456543 C-8.08662819 295.55007458 -9.61635794 294.15445485 -12 291 C-12.75315311 287.18297165 -12.66995891 283.40997335 -12.62818909 279.53001404 C-12.63528347 278.35658465 -12.64237786 277.18315526 -12.64968723 275.97416741 C-12.66424501 272.72060579 -12.65637113 269.46798944 -12.6389643 266.21447003 C-12.6255987 262.70452408 -12.64102434 259.19468868 -12.65278625 255.68475342 C-12.67117282 248.81053659 -12.66264416 241.93660386 -12.64469803 235.06239586 C-12.63067787 229.47662079 -12.62677796 223.89092289 -12.6301403 218.30513191 C-12.63061775 217.51043558 -12.63109519 216.71573924 -12.6315871 215.8969612 C-12.63261342 214.28261278 -12.63366877 212.66826437 -12.63475286 211.05391598 C-12.64332183 196.7768539 -12.62663797 182.49992908 -12.59692383 168.22290039 C-12.56808049 154.36411779 -12.56100517 140.5055329 -12.57641602 126.64672852 C-12.59316973 111.55960867 -12.59722131 96.47258271 -12.57970566 81.38546044 C-12.57786124 79.77732441 -12.57602651 78.16918837 -12.57420158 76.56105232 C-12.57328949 75.76979046 -12.5723774 74.9785286 -12.57143768 74.16328911 C-12.56582752 68.58261792 -12.56914386 63.0019925 -12.57574654 57.42132378 C-12.5834708 50.62270764 -12.57675992 43.82428627 -12.5515715 37.02570944 C-12.53905576 33.55580029 -12.53295471 30.08619466 -12.54411316 26.61627388 C-12.55275655 22.85819413 -12.53693694 19.10100714 -12.5146637 15.34300232 C-12.52290446 14.24136212 -12.53114523 13.13972193 -12.53963572 12.00469869 C-12.52858803 11.00008346 -12.51754034 9.99546823 -12.50615788 8.96041012 C-12.50496639 8.09280148 -12.50377491 7.22519285 -12.50254732 6.33129305 C-10.98488262 -0.70908106 -5.90950012 -0.39396667 0 0 Z " fill="#FCC04F" transform="translate(68,124)"/>
<path d="M0 0 C1.12631836 0.02416992 1.12631836 0.02416992 2.27539062 0.04882812 C3.4287793 0.11166992 3.4287793 0.11166992 4.60546875 0.17578125 C5.39373047 0.19833984 6.18199219 0.22089844 6.99414062 0.24414062 C8.92790804 0.30273964 10.86069042 0.39241298 12.79296875 0.48828125 C12.79296875 0.81828125 12.79296875 1.14828125 12.79296875 1.48828125 C9.82296875 1.48828125 6.85296875 1.48828125 3.79296875 1.48828125 C3.83011952 29.41725496 3.88995692 57.3461001 3.97687149 85.27496529 C4.01669651 98.24255712 4.04907143 111.21008796 4.06396484 124.17773438 C4.07696338 135.47911438 4.1038821 146.78036038 4.14758182 158.08166492 C4.17023697 164.06674206 4.18587699 170.05165367 4.1848526 176.0367775 C4.18410839 181.66911369 4.20196314 187.30108341 4.23413658 192.93332481 C4.24266152 195.00131116 4.244368 197.06933848 4.23877144 199.13733482 C4.23214916 201.96016082 4.25000983 204.78181474 4.27398682 207.60452271 C4.2662264 208.42359954 4.25846598 209.24267637 4.2504704 210.08657372 C4.32938009 215.33139127 5.33300379 218.3173863 8.79296875 222.48828125 C10.78645625 223.85855104 10.78645625 223.85855104 13.08203125 224.55859375 C13.9627832 224.87086914 14.84353516 225.18314453 15.75097656 225.50488281 C16.75483398 225.8294043 17.75869141 226.15392578 18.79296875 226.48828125 C19.9437793 226.86694336 21.09458984 227.24560547 22.28027344 227.63574219 C26.23378059 228.90938945 30.19824047 230.14148278 34.16796875 231.36328125 C35.60400941 231.80872064 37.03996241 232.25444274 38.47583008 232.70043945 C46.90497999 235.31369243 55.35182428 237.86264111 63.81420898 240.36621094 C70.73491028 242.43165465 77.57752228 244.71427107 84.42138672 247.01977539 C90.1352899 248.94355993 95.86605536 250.78369085 101.63671875 252.53125 C105.29955851 253.64188829 108.95295651 254.78176866 112.60546875 255.92578125 C113.27747314 256.13605957 113.94947754 256.34633789 114.6418457 256.56298828 C116.00947009 256.99095237 117.37706433 257.41901281 118.74462891 257.84716797 C120.76448477 258.479366 122.78453994 259.11092223 124.8046875 259.7421875 C125.463479 259.94827637 126.12227051 260.15436523 126.80102539 260.36669922 C128.12646854 260.78030116 129.45247801 261.19209272 130.77905273 261.60205078 C134.20332497 262.66297457 137.61043924 263.75808933 141.00390625 264.9140625 C141.70128906 265.14609375 142.39867187 265.378125 143.1171875 265.6171875 C145.04104041 266.2584718 146.9601623 266.9139001 148.87890625 267.5703125 C158.31878049 270.13676313 166.68491085 267.73076212 175.79296875 264.92578125 C178.28720507 264.18432719 180.78201075 263.44478607 183.27734375 262.70703125 C185.15969727 262.14628906 185.15969727 262.14628906 187.08007812 261.57421875 C192.70898095 259.92789052 198.37328395 258.42435744 204.04296875 256.92578125 C212.24451313 254.74404711 220.40548837 252.46027498 228.54296875 250.05078125 C237.64979784 247.35606619 246.79844215 244.85112449 255.98046875 242.42578125 C267.04553363 239.50252774 278.06269513 236.45085011 289.05761719 233.27539062 C294.44385568 231.72547694 299.83636865 230.19807372 305.23046875 228.67578125 C306.29177002 228.37341553 307.35307129 228.0710498 308.4465332 227.75952148 C313.20948888 226.41824922 317.87517915 225.13780063 322.79296875 224.48828125 C323.15936361 229.86207253 323.15936361 229.86207253 321.56005859 232.59545898 C319.50179918 234.8001682 318.22971228 235.28465616 315.33203125 236.0234375 C314.44290039 236.2620752 313.55376953 236.50071289 312.63769531 236.74658203 C311.69893555 236.99134277 310.76017578 237.23610352 309.79296875 237.48828125 C307.90307673 238.04314513 306.01507345 238.60447827 304.12890625 239.171875 C294.03727551 242.14815046 283.96081206 244.99733405 273.734375 247.47265625 C269.26768877 248.58961044 264.88021649 249.9476175 260.48046875 251.30078125 C251.43774783 254.07434077 242.31824862 256.46605523 233.15527344 258.80737305 C222.24982721 261.60291209 211.41607498 264.63022384 200.58496094 267.69921875 C195.79538817 269.05283008 191.00055895 270.38772456 186.20068359 271.7043457 C182.47750958 272.72811169 178.77061063 273.78931653 175.07421875 274.90625 C161.75631764 278.88503635 152.52341229 279.46236298 139.05615234 275.19482422 C134.36245109 273.72949828 129.63770525 272.36690348 124.91796875 270.98828125 C123.87406982 270.68220947 122.8301709 270.3761377 121.75463867 270.06079102 C114.735139 268.01556681 107.69700268 266.16043148 100.59375 264.43359375 C94.223479 262.8492098 87.91568326 261.04563693 81.59619141 259.27148438 C75.83284352 257.66124051 70.06216922 256.07740012 64.29296875 254.48828125 C54.82538987 251.87827055 45.35900094 249.26423796 35.8984375 246.62890625 C33.06942319 245.84130217 30.23849871 245.06104645 27.40625 244.28515625 C23.66785341 243.2597442 19.93441205 242.21774572 16.20361328 241.16503906 C14.50539481 240.68828581 12.80570418 240.21676108 11.10498047 239.74902344 C8.3509025 238.98891144 5.60297911 238.20926069 2.85546875 237.42578125 C1.99646973 237.1925415 1.1374707 236.95930176 0.25244141 236.71899414 C-0.54758301 236.48688232 -1.34760742 236.25477051 -2.171875 236.015625 C-2.87948975 235.81702881 -3.58710449 235.61843262 -4.31616211 235.41381836 C-6.95658364 234.12139254 -7.75059106 233.08122398 -9.20703125 230.48828125 C-9.66052446 227.49445423 -9.62016128 224.52224966 -9.60144043 221.4990387 C-9.60753153 220.58034954 -9.61362264 219.66166039 -9.61989832 218.71513218 C-9.63657783 215.62970612 -9.63174542 212.54469052 -9.62695312 209.45922852 C-9.63429055 207.25002614 -9.64287581 205.0408276 -9.65261841 202.83163452 C-9.67487682 196.82549505 -9.67776294 190.81949259 -9.6758709 184.81331754 C-9.6757514 179.80315391 -9.68430689 174.79301954 -9.69264841 169.78286403 C-9.71299912 157.289417 -9.71402683 144.79603686 -9.70684129 132.30258399 C-9.70126513 121.45205438 -9.72209405 110.60176083 -9.75520176 99.75128639 C-9.78893201 88.61033406 -9.80363322 77.46946803 -9.79948473 66.3284573 C-9.79741379 60.0734634 -9.80294985 53.8187046 -9.82737732 47.56375313 C-9.84958521 41.68266222 -9.84781596 35.80206376 -9.8274498 29.92097092 C-9.82402928 27.76062452 -9.82917338 25.60024535 -9.84343338 23.43994331 C-9.86153855 20.49421857 -9.84894152 17.55018001 -9.82849121 14.60450745 C-9.84100906 13.74633677 -9.85352691 12.88816609 -9.86642408 12.00399023 C-9.8012977 7.63889617 -9.60758359 5.99346688 -6.80120087 2.4539938 C-4.16984331 0.46010236 -3.21730269 -0.12279781 0 0 Z " fill="#996952" transform="translate(99.20703125,159.51171875)"/>
<path d="M0 0 C4.35929244 1.88047909 6.60325077 4.33977932 9.3671875 8.171875 C11.81999421 11.65001336 11.81999421 11.65001336 15.6171875 13.359375 C18.75088994 12.41926427 20.43371975 11.31605794 23.0546875 9.421875 C27.03455811 6.59442484 29.79982554 5.5868513 34.6796875 5.9765625 C40.08731849 7.14411919 42.73364661 10.29933011 45.6796875 14.671875 C47.08151506 16.77930602 47.08151506 16.77930602 48.7421875 18.421875 C52.36397276 18.96514279 54.4641375 19.0609 57.7421875 17.421875 C61.53634269 16.89069327 65.20549928 16.57098152 68.6328125 18.46875 C70.7827662 20.24298363 72.48854373 21.91458746 73.7421875 24.421875 C73.91015625 26.41015625 73.91015625 26.41015625 73.9296875 28.734375 C73.94386719 29.49363281 73.95804687 30.25289062 73.97265625 31.03515625 C73.70741189 33.78200882 72.80441509 35.88826355 71.7421875 38.421875 C70.82922913 38.42734344 70.82922913 38.42734344 69.89782715 38.43292236 C63.53794774 38.47487486 57.17878143 38.54430954 50.81933594 38.62939453 C48.44896594 38.65754389 46.07850312 38.67878829 43.70800781 38.69287109 C40.29183644 38.71438351 36.87677395 38.76107894 33.4609375 38.8125 C32.40853882 38.81372864 31.35614014 38.81495728 30.27185059 38.81622314 C22.70796713 38.96530794 17.3431865 40.26629573 11.5 45.38671875 C10.96117187 46.03769531 10.42234375 46.68867188 9.8671875 47.359375 C9.31289062 48.00777344 8.75859375 48.65617187 8.1875 49.32421875 C4.27353963 55.00475042 4.46197983 60.30245236 4.46875 66.98046875 C4.44846426 69.07878141 4.42761354 71.17708866 4.40625 73.27539062 C4.3836425 76.57141695 4.36717357 79.86722974 4.36132812 83.16333008 C4.35179818 86.35276516 4.31801942 89.54124753 4.28125 92.73046875 C4.28629547 93.71188339 4.29134094 94.69329803 4.29653931 95.70445251 C4.2124043 101.5682536 3.64665361 104.95174902 -0.2578125 109.421875 C-3.11105687 110.84849719 -5.09235799 110.73221368 -8.2578125 110.421875 C-11.59542295 108.27097049 -12.99252183 107.21774701 -14.2578125 103.421875 C-14.34734525 101.95582564 -14.38291713 100.48611446 -14.38378906 99.01733398 C-14.38759583 98.1288829 -14.39140259 97.24043182 -14.39532471 96.32505798 C-14.39635193 95.36571854 -14.39737915 94.40637909 -14.3984375 93.41796875 C-14.41677637 91.37694206 -14.43634766 89.33592615 -14.45703125 87.29492188 C-14.48590151 84.08469601 -14.50781009 80.87515869 -14.50830078 77.66479492 C-14.51165901 74.56106832 -14.54635989 71.45891891 -14.5859375 68.35546875 C-14.5788678 67.41029892 -14.5717981 66.46512909 -14.56451416 65.49131775 C-14.69848541 58.06031033 -16.6661408 51.45842129 -21.70025635 45.80076599 C-27.52628983 40.6709667 -33.11563278 38.97226043 -40.6328125 38.734375 C-41.36886719 38.70021484 -42.10492188 38.66605469 -42.86328125 38.63085938 C-44.66095103 38.54914711 -46.45935296 38.48381719 -48.2578125 38.421875 C-50.20425143 33.93727971 -51.08178109 30.27740417 -50.2578125 25.421875 C-48.46417339 22.6118404 -47.23900315 20.91247032 -44.2578125 19.421875 C-40.71418314 19.47072202 -37.18095108 19.61843559 -33.640625 19.77734375 C-30.22124767 19.71026122 -30.22124767 19.71026122 -27.890625 17.6484375 C-26.33812243 15.53138854 -25.64146174 14.11842158 -25.0078125 11.609375 C-21.33401515 0.64955498 -10.39924189 -2.66278166 0 0 Z " fill="#F1F4F5" transform="translate(242.2578125,190.578125)"/>
<path d="M0 0 C6.6 0 13.2 0 20 0 C20.99 1.98 21.98 3.96 23 6 C25.37534709 7.18767354 26.84124076 7.13745938 29.49246216 7.15821838 C30.43759674 7.1680072 31.38273132 7.17779602 32.35650635 7.18788147 C33.91664459 7.19651466 33.91664459 7.19651466 35.50830078 7.20532227 C36.60099274 7.21522186 37.69368469 7.22512146 38.81948853 7.23532104 C42.44474086 7.2670031 46.07000632 7.29171998 49.6953125 7.31640625 C52.20352527 7.33696999 54.71173452 7.3579663 57.21994019 7.37937927 C63.1555654 7.42900433 69.09121383 7.4742541 75.02688873 7.51740164 C82.44634784 7.57160175 89.86574876 7.63256374 97.28515625 7.69335938 C110.52339968 7.80101419 123.76168208 7.90193138 137 8 C137 15.92 137 23.84 137 32 C82.88 32 28.76 32 -27 32 C-27 24.08 -27 16.16 -27 8 C-16.75 7.5625 -16.75 7.5625 -13.53808594 7.43188477 C-12.69536133 7.39377686 -11.85263672 7.35566895 -10.984375 7.31640625 C-10.12553711 7.27974854 -9.26669922 7.24309082 -8.38183594 7.20532227 C-7.59583008 7.13756592 -6.80982422 7.06980957 -6 7 C-5.27844727 6.95222412 -4.55689453 6.90444824 -3.81347656 6.85522461 C-3.2150293 6.57300049 -2.61658203 6.29077637 -2 6 C-1.34 4.02 -0.68 2.04 0 0 Z " fill="#645D66" transform="translate(198,46)"/>
<path d="M0 0 C0.81855469 -0.00515625 1.63710938 -0.0103125 2.48046875 -0.015625 C3.74310547 0.00757813 3.74310547 0.00757813 5.03125 0.03125 C5.87300781 0.01578125 6.71476562 0.0003125 7.58203125 -0.015625 C11.73821529 0.01055569 13.97424729 0.18096994 17.5625 2.4375 C20.42136469 5.4778799 20.65807926 7.11265515 20.67842102 11.17988586 C20.68557632 12.15986542 20.69273163 13.13984497 20.70010376 14.14952087 C20.70413712 15.76800682 20.70413712 15.76800682 20.70825195 17.41918945 C20.71482315 18.5526178 20.72139435 19.68604614 20.72816467 20.8538208 C20.74793071 24.61739156 20.75956705 28.38092237 20.76953125 32.14453125 C20.77360678 33.42726614 20.7776823 34.71000103 20.78188133 36.03160667 C20.80060111 42.11901328 20.81516433 48.20639978 20.8234933 54.29382926 C20.83326551 61.32005428 20.85958399 68.34596424 20.89999419 75.37207824 C20.93379469 81.4578821 20.94563844 87.5435535 20.94969749 93.62944603 C20.95457803 96.21825485 20.96623338 98.80705996 20.98473549 101.39580727 C21.00900193 105.01583765 21.00818438 108.63504067 21.0012207 112.25512695 C21.01403076 113.32804489 21.02684082 114.40096283 21.04003906 115.50639343 C20.98896982 122.77600221 20.98896982 122.77600221 18.62687683 126.67350769 C14.470411 130.35815341 10.54517387 129.7843475 5.21875 129.84375 C4.36345703 129.87275391 3.50816406 129.90175781 2.62695312 129.93164062 C1.79486328 129.94001953 0.96277344 129.94839844 0.10546875 129.95703125 C-1.03015503 129.97890503 -1.03015503 129.97890503 -2.1887207 130.0012207 C-5.72642936 129.27201103 -7.03645153 128.25904416 -9.46875 125.53125 C-10.24733655 121.71188213 -10.15113368 117.91948405 -10.11572266 114.03320312 C-10.12448425 112.85886215 -10.13324585 111.68452118 -10.14227295 110.47459412 C-10.16050677 107.25737473 -10.15623738 104.04118422 -10.14037752 100.82398033 C-10.12771049 97.45591458 -10.13946083 94.08791711 -10.14730835 90.71984863 C-10.15640268 85.06392085 -10.1444231 79.4083196 -10.12060547 73.75244141 C-10.09339405 67.21519888 -10.1022084 60.67873603 -10.1297375 54.14151239 C-10.15243415 48.52691049 -10.15562611 42.91254318 -10.14254415 37.29791021 C-10.13475247 33.94534876 -10.13369958 30.59315369 -10.15022659 27.24061584 C-10.16289699 23.50297001 -10.14360788 19.76683026 -10.11572266 16.02929688 C-10.12584381 14.9185228 -10.13596497 13.80774872 -10.14639282 12.66331482 C-10.04264091 5.17335305 -10.04264091 5.17335305 -7.06784058 1.8449707 C-4.45985969 0.52675636 -2.89593313 0.01770439 0 0 Z " fill="#625B64" transform="translate(359.46875,37.46875)"/>
<path d="M0 0 C0.91330078 -0.00193359 1.82660156 -0.00386719 2.76757812 -0.00585938 C3.70923828 0.01798828 4.65089844 0.04183594 5.62109375 0.06640625 C7.03938477 0.0499707 7.03938477 0.0499707 8.48632812 0.03320312 C15.41738234 0.1066772 15.41738234 0.1066772 18.17075348 2.34913635 C20.40470604 5.04687402 20.56058532 6.18645077 20.56652832 9.63867188 C20.58344727 11.15279663 20.58344727 11.15279663 20.60070801 12.69750977 C20.59261108 13.79893311 20.58451416 14.90035645 20.57617188 16.03515625 C20.58318115 17.19974365 20.59019043 18.36433105 20.59741211 19.56420898 C20.61503807 23.41934958 20.60335216 27.27375799 20.58984375 31.12890625 C20.59253732 33.80404578 20.59641228 36.47916294 20.60144043 39.15429688 C20.60871572 44.76310175 20.59913246 50.37169588 20.58007812 55.98046875 C20.55830932 62.46308532 20.5653608 68.94519867 20.58738375 75.42780304 C20.60554134 80.99567214 20.60809441 86.56338984 20.59762907 92.13127899 C20.59139597 95.45586295 20.59212573 98.78015877 20.60377502 102.10473633 C20.61391123 105.81105782 20.5984786 109.51640732 20.57617188 113.22265625 C20.5842688 114.32407959 20.59236572 115.42550293 20.60070801 116.56030273 C20.58942871 117.56971924 20.57814941 118.57913574 20.56652832 119.61914062 C20.56502022 120.49517944 20.56351212 121.37121826 20.56195831 122.27380371 C19.89063552 125.41473603 18.51468092 126.62856744 16.05859375 128.62890625 C12.61529776 129.42665853 9.14665721 129.23226145 5.62109375 129.19140625 C4.67943359 129.21525391 3.73777344 129.23910156 2.76757812 129.26367188 C1.39762695 129.26077148 1.39762695 129.26077148 0 129.2578125 C-0.82814209 129.2585376 -1.65628418 129.2592627 -2.50952148 129.26000977 C-6.29698 128.27711846 -7.58073712 126.76014204 -9.94140625 123.62890625 C-10.69503157 119.86124855 -10.62437 116.14040997 -10.58837891 112.30859375 C-10.5971405 111.16497375 -10.6059021 110.02135376 -10.6149292 108.84307861 C-10.63693493 105.06296851 -10.62236465 101.28402824 -10.60546875 97.50390625 C-10.6088365 94.87743912 -10.61368877 92.25097351 -10.6199646 89.62451172 C-10.62905378 84.11998827 -10.61709292 78.61580056 -10.59326172 73.11132812 C-10.56605123 66.75300885 -10.57486596 60.39549125 -10.60239375 54.03719139 C-10.62784222 47.91337858 -10.62511776 41.78992038 -10.61048508 35.66607666 C-10.60714774 33.06333301 -10.61124954 30.46056892 -10.62288284 27.85784912 C-10.63557033 24.22108634 -10.61624029 20.58586649 -10.58837891 16.94921875 C-10.59850006 15.87166321 -10.60862122 14.79410767 -10.61904907 13.68389893 C-10.51544074 6.39031636 -10.51544074 6.39031636 -7.55296326 2.46083069 C-4.72884599 0.47980197 -3.40613888 -0.00298232 0 0 Z " fill="#756C77" transform="translate(135.94140625,36.37109375)"/>
<path d="M0 0 C53.46 0 106.92 0 162 0 C162 6.93 162 13.86 162 21 C153.8125 21.25 153.8125 21.25 151.26098633 21.29785156 C146.3341323 21.52038865 143.52455715 22.24959744 140 26 C139.67 26.99 139.34 27.98 139 29 C132.4 29 125.8 29 119 29 C118.01 26.525 118.01 26.525 117 24 C113.80497559 21.86998373 112.9805904 21.74574647 109.31135559 21.7215271 C108.34801804 21.71036362 107.38468048 21.69920013 106.39215088 21.68769836 C104.80935333 21.68445808 104.80935333 21.68445808 103.19458008 21.68115234 C101.52606239 21.66608391 101.52606239 21.66608391 99.82383728 21.65071106 C96.13907397 21.61976599 92.45438368 21.60281232 88.76953125 21.5859375 C86.21790432 21.56723498 83.66628364 21.54766227 81.1146698 21.5272522 C75.07991332 21.48108722 69.04516402 21.4437138 63.01032704 21.41057932 C56.13971318 21.37236689 49.2691942 21.32295446 42.3986603 21.27259517 C28.26583674 21.16925635 14.13296562 21.08148092 0 21 C0 14.07 0 7.14 0 0 Z " fill="#FECF63" transform="translate(172,124)"/>
<path d="M0 0 C12.56086399 -0.09034843 25.12151237 -0.16374352 37.68262768 -0.20724869 C43.51518508 -0.22812837 49.34750876 -0.25645348 55.17993164 -0.30175781 C60.80796419 -0.34520121 66.43577184 -0.36913423 72.06395912 -0.37950897 C74.2117905 -0.38690299 76.35960949 -0.40134167 78.5073452 -0.42292023 C81.51452666 -0.45193366 84.5207774 -0.45595679 87.52807617 -0.45410156 C88.41712143 -0.46848267 89.30616669 -0.48286377 90.22215271 -0.49768066 C94.29399683 -0.47047724 96.47997029 -0.30853686 100.05049133 1.80987549 C102.860408 4.96660286 102.66628783 7.27155747 102.625 11.4375 C102.64433594 13.38462891 102.64433594 13.38462891 102.6640625 15.37109375 C101.82187332 19.97340991 100.71501408 21.18840646 97 24 C93.83683442 24.70410166 90.75705824 24.63291655 87.52807617 24.56762695 C86.10783646 24.56872215 86.10783646 24.56872215 84.65890503 24.56983948 C81.53633896 24.56636229 78.4152735 24.52749396 75.29296875 24.48828125 C73.12535924 24.47895362 70.95773918 24.47183727 68.79011536 24.46684265 C63.09016725 24.44776913 57.39085809 24.39866445 51.69116211 24.34332275 C45.87297204 24.29213841 40.05467854 24.2693303 34.23632812 24.24414062 C22.82389312 24.19054652 11.4120997 24.10260692 0 24 C0 16.08 0 8.16 0 0 Z " fill="#645D66" transform="translate(395,54)"/>
<path d="M0 0 C0.8979126 -0.00058411 1.7958252 -0.00116821 2.72094727 -0.00177002 C5.68642953 0.00101489 8.65090445 0.03212622 11.61621094 0.06347656 C13.67315115 0.0709375 15.73009848 0.07663113 17.78704834 0.08062744 C23.19921516 0.09589529 28.61095215 0.13518731 34.02294922 0.17944336 C39.54616481 0.22037108 45.06944989 0.23863313 50.59277344 0.25878906 C61.42893011 0.30168032 72.26465502 0.37203987 83.10058594 0.45410156 C83.10058594 8.37410156 83.10058594 16.29410156 83.10058594 24.45410156 C71.3220327 24.56705278 59.54383902 24.65878929 47.76486683 24.71316242 C42.29543249 24.73925854 36.82638781 24.77465745 31.35717773 24.83129883 C26.07925778 24.8856172 20.80171267 24.91552199 15.52353477 24.92848778 C13.50965155 24.93772791 11.49578889 24.95577187 9.4820652 24.98275185 C6.6615017 25.01903969 3.84248781 25.02404701 1.02172852 25.02172852 C-0.22768272 25.04869308 -0.22768272 25.04869308 -1.50233459 25.07620239 C-5.76293596 25.03829669 -7.42126234 24.81983971 -10.91767883 22.14543152 C-13.54111874 18.58262338 -13.53598928 16.27946877 -13.46191406 11.89160156 C-13.46320312 10.5909375 -13.46449219 9.29027344 -13.46582031 7.95019531 C-12.89941406 4.45410156 -12.89941406 4.45410156 -11.42022705 2.26397705 C-7.69789486 -0.4085567 -4.47588604 -0.0760955 0 0 Z " fill="#645D66" transform="translate(27.8994140625,53.5458984375)"/>
<path d="M0 0 C4.37664139 -0.13885936 8.74545684 -0.25789676 13.12255859 -0.32958984 C14.60654781 -0.35950768 16.09036414 -0.40025936 17.57373047 -0.45263672 C26.98383686 -0.77624793 34.65205736 -0.62343176 42 6 C48.01562002 13.30297944 48.87180624 19.93747201 48.7265625 29.1640625 C48.72755951 30.3961142 48.72855652 31.62816589 48.72958374 32.89755249 C48.72492602 35.48775728 48.70560974 38.07797315 48.67236328 40.66796875 C48.62505245 44.6206183 48.6312732 48.57057532 48.64453125 52.5234375 C48.63337961 55.04949516 48.61916104 57.57554153 48.6015625 60.1015625 C48.60429672 61.86277939 48.60429672 61.86277939 48.60708618 63.65957642 C48.46412138 71.97094432 47.1065981 77.20304677 41.75 83.75 C33.21206801 90.73558072 25.47346624 90.50191455 15 90.25 C13.54299331 90.22990336 12.08595985 90.21165818 10.62890625 90.1953125 C7.08472666 90.15499191 3.5443172 90.07667994 0 90 C0 85.05 0 80.1 0 75 C2.38605469 74.94392578 2.38605469 74.94392578 4.8203125 74.88671875 C6.92189799 74.8210442 9.02345945 74.75459738 11.125 74.6875 C12.17171875 74.66494141 13.2184375 74.64238281 14.296875 74.61914062 C22.11708162 74.41743716 22.11708162 74.41743716 29 71 C32.28947533 65.87979999 32.45398988 61.54125028 32.43359375 55.65625 C32.4388356 54.76893188 32.44407745 53.88161377 32.44947815 52.96740723 C32.455879 51.09823652 32.45458653 49.22902543 32.44604492 47.35986328 C32.43752602 44.50870796 32.46633679 41.65955193 32.49804688 38.80859375 C32.49965894 36.98697976 32.49908125 35.16536225 32.49609375 33.34375 C32.50732773 32.49671509 32.51856171 31.64968018 32.53013611 30.77697754 C32.46718365 25.40151981 31.66930117 22.20179189 28 18 C24.90731729 15.80105962 22.09828007 15.70526426 18.359375 15.5859375 C16.75449219 15.52792969 16.75449219 15.52792969 15.1171875 15.46875 C13.45042969 15.42234375 13.45042969 15.42234375 11.75 15.375 C10.62335938 15.33632813 9.49671875 15.29765625 8.3359375 15.2578125 C5.55755891 15.16363017 2.77880201 15.08072972 0 15 C0 10.05 0 5.1 0 0 Z " fill="#D8E2E7" transform="translate(325,262)"/>
<path d="M0 0 C6.6 0 13.2 0 20 0 C20.99 1.98 21.98 3.96 23 6 C25.36614679 7.18307339 26.81439496 7.13735978 29.45449829 7.15821838 C30.39121872 7.1680072 31.32793915 7.17779602 32.29304504 7.18788147 C33.32378647 7.19363693 34.35452789 7.1993924 35.41650391 7.20532227 C36.49944229 7.21522186 37.58238068 7.22512146 38.69813538 7.23532104 C42.2909219 7.26700235 45.88372166 7.29171968 49.4765625 7.31640625 C51.96235505 7.33697005 54.44814406 7.35796636 56.93392944 7.37937927 C62.81643106 7.42900377 68.69895371 7.4742537 74.58150613 7.51740164 C81.93458269 7.57160235 89.28760052 7.63256407 96.640625 7.69335938 C109.76037701 7.80101336 122.8801693 7.90244221 136 8 C136 11.63 136 15.26 136 19 C82.54 19 29.08 19 -26 19 C-26 15.37 -26 11.74 -26 8 C-24.60265625 7.93941406 -23.2053125 7.87882812 -21.765625 7.81640625 C-19.92707358 7.73198297 -18.08853243 7.64733586 -16.25 7.5625 C-14.86941406 7.50352539 -14.86941406 7.50352539 -13.4609375 7.44335938 C-12.57148438 7.40146484 -11.68203125 7.35957031 -10.765625 7.31640625 C-9.94868164 7.27974854 -9.13173828 7.24309082 -8.29003906 7.20532227 C-7.15646973 7.10368774 -7.15646973 7.10368774 -6 7 C-5.28295898 6.95222412 -4.56591797 6.90444824 -3.82714844 6.85522461 C-3.22418945 6.57300049 -2.62123047 6.29077637 -2 6 C-1.34 4.02 -0.68 2.04 0 0 Z " fill="#756C77" transform="translate(198,46)"/>
<path d="M0 0 C2.27024968 -0.08097324 4.54132075 -0.13917704 6.8125 -0.1875 C8.07707031 -0.22230469 9.34164063 -0.25710937 10.64453125 -0.29296875 C14 0 14 0 15.68716908 1.23001575 C17.37439092 3.50476114 17.3702282 4.79540703 17.36076355 7.61271667 C17.36488754 8.55922592 17.36901154 9.50573517 17.3732605 10.48092651 C17.36247467 11.5174234 17.35168884 12.55392029 17.34057617 13.62182617 C17.34123329 15.26108315 17.34123329 15.26108315 17.34190369 16.93345642 C17.33981005 20.55347424 17.31645131 24.17303162 17.29296875 27.79296875 C17.28737486 30.29974616 17.28310378 32.80652685 17.28010559 35.31330872 C17.26981311 41.24191657 17.2461577 47.17037615 17.21605712 53.09890777 C17.17924276 60.51057049 17.16312406 67.92225365 17.14648438 75.33398438 C17.1142911 88.55607387 17.06364975 101.77802645 17 115 C9.22482758 115.12736945 9.22482758 115.12736945 6.25 112.875 C5.69828125 112.48054688 5.1465625 112.08609375 4.578125 111.6796875 C-0.4646689 106.31235736 -0.41915945 100.70006775 -0.34057617 93.77197266 C-0.34101425 92.75672516 -0.34145233 91.74147766 -0.34190369 90.69546509 C-0.33981953 87.35146622 -0.31650551 84.00797341 -0.29296875 80.6640625 C-0.28737148 78.340935 -0.283102 76.01780395 -0.28010559 73.69467163 C-0.26866718 67.58886896 -0.23920834 61.48328135 -0.20599365 55.37756348 C-0.17527131 49.14366566 -0.16159561 42.909733 -0.14648438 36.67578125 C-0.11433792 24.45042649 -0.06315346 12.22523115 0 0 Z " fill="#756C77" transform="translate(362,39)"/>
<path d="M0 0 C0.00364563 1.30212433 0.00729126 2.60424866 0.01104736 3.9458313 C0.04798921 16.21737729 0.10575336 28.48867215 0.18390274 40.76002693 C0.22341104 47.06886969 0.25558326 53.37757215 0.27099609 59.68652344 C0.28614029 65.77507661 0.32054683 71.8632442 0.36830902 77.95162582 C0.38314577 80.27439904 0.39104232 82.59722731 0.39188385 84.92004776 C0.39424825 88.17384193 0.42128719 91.42656595 0.45410156 94.68017578 C0.4490712 95.64043167 0.44404083 96.60068756 0.43885803 97.59004211 C0.54522658 104.40767679 1.86795629 107.86795629 6.75 112.75 C10.03807032 114.57670573 13.32721252 115.20422938 17 116 C17.48088185 123.2132277 17.48088185 123.2132277 15.63671875 126.23046875 C11.49517956 129.00990172 7.4373937 128.61899161 2.5625 128.5625 C1.62083984 128.58634766 0.67917969 128.61019531 -0.29101562 128.63476562 C-1.6609668 128.63186523 -1.6609668 128.63186523 -3.05859375 128.62890625 C-3.88673584 128.62963135 -4.71487793 128.63035645 -5.56811523 128.63110352 C-9.35557375 127.64821221 -10.63933087 126.13123579 -13 123 C-13.75362532 119.2323423 -13.68296375 115.51150372 -13.64697266 111.6796875 C-13.65573425 110.5360675 -13.66449585 109.39244751 -13.67352295 108.21417236 C-13.69552868 104.43406226 -13.6809584 100.65512199 -13.6640625 96.875 C-13.66743025 94.24853287 -13.67228252 91.62206726 -13.67855835 88.99560547 C-13.68764753 83.49108202 -13.67568667 77.98689431 -13.65185547 72.48242188 C-13.62464498 66.1241026 -13.63345971 59.766585 -13.6609875 53.40828514 C-13.68643597 47.28447233 -13.68371151 41.16101413 -13.66907883 35.03717041 C-13.66574149 32.43442676 -13.66984329 29.83166267 -13.68147659 27.22894287 C-13.69416408 23.59218009 -13.67483404 19.95696024 -13.64697266 16.3203125 C-13.65709381 15.24275696 -13.66721497 14.16520142 -13.67764282 13.05499268 C-13.61185546 8.42384425 -13.48355808 5.76014251 -10.95956421 1.79248047 C-6.96425079 -0.62730865 -4.60887705 -0.3905828 0 0 Z " fill="#625B64" transform="translate(139,37)"/>
<path d="M0 0 C36.96 0 73.92 0 112 0 C112 4.29 112 8.58 112 13 C106.37478553 17.50017158 106.37478553 17.50017158 102.56005859 17.50793457 C101.27322174 17.52485352 101.27322174 17.52485352 99.96038818 17.54211426 C99.03244446 17.53401733 98.10450073 17.52592041 97.1484375 17.51757812 C96.16087463 17.5245874 95.17331177 17.53159668 94.15582275 17.53881836 C90.89526148 17.55640642 87.63556993 17.54477227 84.375 17.53125 C82.10725742 17.53394467 79.83951597 17.53782688 77.57177734 17.54284668 C72.82052605 17.54874285 68.06957568 17.54017463 63.31835938 17.52148438 C57.22834317 17.49869514 51.13903208 17.51181753 45.04904175 17.53577423 C40.36672656 17.55022876 35.68457853 17.54562771 31.0022583 17.53526306 C28.75677405 17.53259484 26.51127463 17.53586885 24.26580811 17.54518127 C21.12731734 17.5553408 17.98996824 17.53985312 14.8515625 17.51757812 C13.92361877 17.52567505 12.99567505 17.53377197 12.03961182 17.54211426 C11.18172058 17.53083496 10.32382935 17.51955566 9.43994141 17.50793457 C8.69886139 17.50642647 7.95778137 17.50491837 7.19424438 17.50336456 C5 17 5 17 0 13 C0 8.71 0 4.42 0 0 Z " fill="#C1CBD4" transform="translate(198,367)"/>
<path d="M0 0 C2.97 0 5.94 0 9 0 C9 35.64 9 71.28 9 108 C6.03 108 3.06 108 0 108 C-0.00410889 106.90534424 -0.00821777 105.81068848 -0.01245117 104.68286133 C-0.03427052 100.61028355 -0.08858831 96.53866809 -0.15258789 92.46655273 C-0.17574364 90.70623009 -0.19015794 88.94576939 -0.19555664 87.18530273 C-0.20486442 84.65000621 -0.24589048 82.11687372 -0.29296875 79.58203125 C-0.2890361 78.79850784 -0.28510345 78.01498444 -0.28105164 77.2077179 C-0.39338712 72.97355409 -0.64518079 71.43617447 -3.41918945 68.02612305 C-5.80401423 66.01442821 -5.80401423 66.01442821 -8 65 C-8 58.4 -8 51.8 -8 45 C-6.02 44.01 -4.04 43.02 -2 42 C-0.30973863 38.61947726 -0.75555041 34.77739858 -0.68359375 31.0546875 C-0.66281265 30.1696756 -0.64203156 29.2846637 -0.62062073 28.37283325 C-0.55513402 25.54030259 -0.49624438 22.70767775 -0.4375 19.875 C-0.39431394 17.95702143 -0.35069963 16.03905246 -0.30664062 14.12109375 C-0.19945353 9.41415949 -0.0981836 4.70713033 0 0 Z " fill="#FEC14F" transform="translate(198,244)"/>
<path d="M0 0 C12.56081228 -0.09265747 25.12154332 -0.16374363 37.68262768 -0.20724869 C43.51518508 -0.22812837 49.34750876 -0.25645348 55.17993164 -0.30175781 C60.80796419 -0.34520121 66.43577184 -0.36913423 72.06395912 -0.37950897 C74.2117905 -0.38690299 76.35960949 -0.40134167 78.5073452 -0.42292023 C81.51452666 -0.45193366 84.5207774 -0.45595679 87.52807617 -0.45410156 C88.41712143 -0.46848267 89.30616669 -0.48286377 90.22215271 -0.49768066 C94.15890885 -0.47137975 96.54138796 -0.23596328 100.09199524 1.59088135 C102 4 102 4 102 11 C68.34 11 34.68 11 0 11 C0 7.37 0 3.74 0 0 Z " fill="#756C77" transform="translate(395,54)"/>
<path d="M0 0 C27.39 0 54.78 0 83 0 C83 3.63 83 7.26 83 11 C73.45528816 11.09278251 63.91073217 11.16380665 54.36566734 11.20724869 C49.93323178 11.22810139 45.50110533 11.25637633 41.06884766 11.30175781 C36.78944496 11.34529877 32.51033912 11.36915454 28.23073196 11.37950897 C26.60006667 11.38688559 24.96941716 11.4012906 23.33887863 11.42292023 C21.05027223 11.45206509 18.76288396 11.45595156 16.47412109 11.45410156 C14.52220352 11.46742523 14.52220352 11.46742523 12.53085327 11.48101807 C8.37203054 10.91444996 6.2442851 9.61457167 3 7 C0 2.8 0 2.8 0 0 Z " fill="#756C77" transform="translate(28,54)"/>
<path d="M0 0 C33 0 66 0 100 0 C100 1.98 100 3.96 100 6 C87.99530502 6.115947 75.99074367 6.20474272 63.98560238 6.25906086 C58.41085441 6.28513345 52.83649008 6.32048949 47.26196289 6.37719727 C41.88029278 6.43159939 36.49899124 6.46143812 31.11706734 6.47438622 C29.06576296 6.48361129 27.01447833 6.50162597 24.96333122 6.52865028 C22.08570951 6.56504925 19.2096027 6.56994077 16.33178711 6.56762695 C15.48733536 6.58560333 14.64288361 6.60357971 13.77284241 6.62210083 C7.66649634 6.56911659 4.62234842 5.00470693 0 1 C0 0.67 0 0.34 0 0 Z " fill="#DBE5EA" transform="translate(210,368)"/>
<path d="M0 0 C5.94 0 11.88 0 18 0 C18 9.9 18 19.8 18 30 C12.06 30 6.12 30 0 30 C0 20.1 0 10.2 0 0 Z " fill="#A77861" transform="translate(325,292)"/>
<path d="M0 0 C1.03189453 0.00424484 2.06378906 0.00848969 3.12695312 0.01286316 C6.39740967 0.02955074 9.66723217 0.0671848 12.9375 0.10546875 C15.16535563 0.12052839 17.393221 0.13421455 19.62109375 0.14648438 C25.0601093 0.17942165 30.49875933 0.22952125 35.9375 0.29296875 C35.6075 1.61296875 35.2775 2.93296875 34.9375 4.29296875 C34.01787979 4.30509903 34.01787979 4.30509903 33.0796814 4.31747437 C26.68784145 4.40365764 20.29630671 4.50316728 13.90478516 4.61035156 C11.52072279 4.64858989 9.13660375 4.68345168 6.75244141 4.71484375 C3.32173431 4.76060558 -0.10858432 4.81858264 -3.5390625 4.87890625 C-4.60178375 4.89045746 -5.664505 4.90200867 -6.75942993 4.91390991 C-11.90013493 5.01599447 -16.25572429 5.23909907 -21.0625 7.29296875 C-20.5625 5.48046875 -20.5625 5.48046875 -19.0625 3.29296875 C-12.59607559 0.21705547 -7.08747248 -0.11121192 0 0 Z " fill="#D8DCDF" transform="translate(279.0625,224.70703125)"/>
</svg>
